<svg xmlns="http://www.w3.org/2000/svg" data-name="Layer 1" viewBox="0 0 100 125" x="0px" y="0px" width="219.43" height="329.15">
  <title>Artboard 38</title>
  <path d="M81.48,44.29a4,4,0,0,0-7.87,1.42A24,24,0,1,1,54.29,26.39a4,4,0,0,0,1.42-7.87A32,32,0,1,0,81.48,44.29Z" fill="#333333"/>
  <path d="M72,34a6,6,0,0,0,6-6c0-2.28-2.85-6.17-4.62-8.36a1.77,1.77,0,0,0-2.76,0C68.85,21.83,66,25.72,66,28A6,6,0,0,0,72,34Z" fill="#333333"/>
  <circle cx="39" cy="46" r="4" fill="#333333"/>
  <circle cx="61" cy="46" r="4" fill="#333333"/>
  <path d="M49.51,66A8,8,0,0,0,58,58V57a3,3,0,0,0-3-3H45a3,3,0,0,0-3,3v.69A8.21,8.21,0,0,0,49.51,66Z" fill="#333333"/>
  <text x="25" y="115" fill="#333333" font-size="20px" font-family="Bebas Neue, sans-serif">oops...</text>
</svg>
