<!DOCTYPE svg PUBLIC "-//W3C//DTD SVG 1.1//EN" "http://www.w3.org/Graphics/SVG/1.1/DTD/svg11.dtd">
<!-- Uploaded to: SVG Repo, www.svgrepo.com, Transformed by: SVG Repo Mixer Tools -->
<svg height="800px" width="800px" version="1.1" id="Capa_1" xmlns="http://www.w3.org/2000/svg" xmlns:xlink="http://www.w3.org/1999/xlink" viewBox="0 0 58.83 58.83" xml:space="preserve" fill="#ffbf00" stroke="#ffbf00" stroke-width="0.176493">
<g id="SVGRepo_bgCarrier" stroke-width="0"/>
<g id="SVGRepo_tracerCarrier" stroke-linecap="round" stroke-linejoin="round"/>
<g id="SVGRepo_iconCarrier"> <g> <path style="fill:#ffbf00;" d="M10.072,22.645h38.56c0.781,0,1.419-0.637,1.419-1.42v-2.548c0-1.896-1.543-3.438-3.44-3.438 c-0.404,0-0.8,0.068-1.172,0.203c-0.103-2.396-2.083-4.313-4.504-4.313c-0.358,0-0.714,0.042-1.105,0.133 c-0.05,0-0.116-0.022-0.152-0.082c-0.951-1.626-2.713-2.638-4.596-2.638c-0.404,0-0.809,0.047-1.232,0.127 c-0.893-2.622-3.355-4.384-6.128-4.384c-3.52,0-6.393,2.823-6.473,6.323c-0.748-0.367-1.57-0.558-2.417-0.558 c-2.851,0-5.202,2.18-5.474,4.96c-0.264-0.055-0.533-0.082-0.803-0.082c-2.152,0-3.902,1.75-3.902,3.902v2.394 C8.654,22.009,9.29,22.645,10.072,22.645z M10.072,18.832c0-1.37,1.115-2.484,2.484-2.484c0.226,0,0.45,0.031,0.665,0.091 c0.292,0.081,0.512,0.132,0.707,0.132c0.318,0,0.515-0.137,0.622-0.252l0.225-0.269l-0.018-0.304 c-0.003-0.062-0.006-0.129-0.006-0.196c0-2.25,1.83-4.08,4.081-4.08c0.833,0,1.636,0.25,2.318,0.722 c0.525,0.365,1.022,0.324,1.331-0.021c0.184-0.208,0.258-0.491,0.217-0.839c-0.021-0.187-0.033-0.377-0.033-0.57 c0-2.788,2.269-5.055,5.057-5.055c2.165,0,4.088,1.374,4.785,3.422c0.238,0.702,0.975,1.103,1.692,0.935 c0.289-0.066,0.585-0.1,0.883-0.1c1.381,0,2.673,0.741,3.371,1.935c0.347,0.593,1.071,0.903,1.761,0.739 c0.235-0.059,0.478-0.088,0.722-0.088c1.703,0,3.09,1.386,3.09,3.09c0,0.182-0.016,0.362-0.048,0.541 c-0.029,0.166-0.097,0.556,0.162,0.864l0.264,0.275l0.331-0.001c0.272,0,0.498-0.135,0.701-0.281 c0.343-0.248,0.751-0.379,1.176-0.379c1.113,0,2.021,0.906,2.021,2.02l0.001,2.548H10.072 C10.072,21.227,10.072,18.832,10.072,18.832z M11.777,9.172c0.303,0.151,0.779,0.537,1.041,0.845 c0.249,0.289,0.646,0.463,1.064,0.463c0.233,0,0.462-0.056,0.657-0.159c0.537-0.285,0.942-1.086,0.942-1.865 c0-0.832-0.795-1.508-1.773-1.508h-0.177c-0.802,0-1.786,0.269-2.117,0.783c-0.164,0.255-0.214,0.56-0.139,0.835 C11.349,8.83,11.526,9.046,11.777,9.172z M12.012,8.115c0.119-0.188,0.771-0.459,1.52-0.459h0.177c0.587,0,1.065,0.358,1.065,0.799 c0,0.554-0.299,1.096-0.566,1.238c-0.094,0.05-0.206,0.075-0.325,0.075c-0.211,0-0.411-0.082-0.525-0.214 c-0.323-0.378-0.878-0.824-1.264-1.019c-0.068-0.034-0.114-0.089-0.134-0.158C11.937,8.295,11.956,8.202,12.012,8.115z M21.148,5.723c0.152,0.255,0.437,0.401,0.786,0.401c0.29,0,0.607-0.102,0.892-0.283c0.509-0.322,1.023-0.906,1.023-1.393 c0-0.395-0.211-0.904-0.489-1.183c-0.309-0.308-0.872-0.341-1.102-0.341c-0.178,0-0.354,0.018-0.522,0.053 c-0.7,0.147-1.173,0.732-1.076,1.334C20.733,4.765,20.947,5.387,21.148,5.723z M21.882,3.673C22,3.649,22.13,3.635,22.258,3.635 c0.318,0,0.546,0.08,0.6,0.134c0.148,0.147,0.28,0.472,0.28,0.681c0,0.105-0.235,0.502-0.694,0.795 c-0.278,0.179-0.645,0.187-0.686,0.117c-0.156-0.264-0.339-0.795-0.397-1.16C21.33,4.009,21.537,3.745,21.882,3.673z M31.122,3.013 c0.141,0.064,0.383,0.238,0.517,0.371c0.275,0.274,0.982,0.4,1.522,0.4c0.746,0,1.33-0.778,1.33-1.773V1.773 C34.491,0.796,33.695,0,32.718,0h-0.356c-0.977,0-1.773,0.649-1.773,1.448C30.588,1.669,30.614,2.782,31.122,3.013z M32.362,0.709 h0.356c0.587,0,1.064,0.479,1.064,1.064V2.01c0,0.627-0.327,1.063-0.621,1.063c-0.516,0-0.941-0.128-1.021-0.192 c-0.195-0.194-0.507-0.416-0.669-0.477c-0.059-0.071-0.173-0.438-0.173-0.957C31.297,1.047,31.786,0.709,32.362,0.709z M38.525,8.306c0.106,0.033,0.219,0.05,0.335,0.05c0.475,0,0.952-0.282,1.188-0.702c0.309-0.551,0.274-1.192-0.079-1.493 c-0.306-0.264-0.945-0.349-1.437-0.205c-0.542,0.157-0.966,0.67-0.966,1.168C37.566,7.62,37.988,8.139,38.525,8.306z M38.73,6.638 c0.099-0.028,0.212-0.045,0.327-0.045c0.24,0,0.401,0.064,0.452,0.107c0.045,0.04,0.087,0.311-0.08,0.606 c-0.133,0.236-0.468,0.391-0.694,0.323c-0.263-0.083-0.459-0.334-0.459-0.505C38.276,6.957,38.469,6.713,38.73,6.638z M46.612,11.825c0.587,0,1.065-0.557,1.065-1.241c0-0.686-0.478-1.243-1.065-1.243c-0.586,0-1.064,0.558-1.064,1.243 C45.547,11.268,46.026,11.825,46.612,11.825z M46.612,10.052c0.19,0,0.356,0.248,0.356,0.532c0,0.282-0.166,0.532-0.356,0.532 c-0.188,0-0.354-0.25-0.354-0.532C46.257,10.3,46.423,10.052,46.612,10.052z M29.092,10.681c-0.856-0.276-2.085,0.014-2.727,0.633 l-0.531,0.513c-0.687,0.664-0.826,1.819-0.314,2.629l0.166,0.264c0.484,0.764,1.521,1.363,2.363,1.363 c0.888,0,1.758-0.725,1.983-1.65l0.361-1.5C30.62,11.996,30.057,10.992,29.092,10.681z M29.704,12.766l-0.362,1.499 c-0.144,0.601-0.737,1.107-1.292,1.107c-0.601,0-1.409-0.473-1.763-1.032l-0.166-0.265c-0.328-0.518-0.232-1.313,0.208-1.739 l0.53-0.512c0.336-0.325,0.936-0.543,1.493-0.543c0.192,0,0.368,0.025,0.57,0.092C29.495,11.556,29.844,12.181,29.704,12.766z M34.966,12.939l-0.369,0.035c-0.86,0.085-1.731,0.501-1.731,1.134c0,0.514,0.465,1.255,0.902,1.692 c0.514,0.514,1.307,0.902,1.847,0.902c0.658,0,1.153-0.764,1.153-1.773v-0.355C36.768,13.596,35.958,12.847,34.966,12.939z M36.058,14.93c0,0.66-0.286,1.062-0.443,1.062c-0.309,0-0.937-0.284-1.346-0.692c-0.43-0.432-0.694-0.983-0.695-1.181 c0.028-0.094,0.408-0.37,1.093-0.438l0.369-0.036c0.034-0.003,0.069-0.006,0.104-0.006c0.523,0,0.919,0.402,0.919,0.935 L36.058,14.93L36.058,14.93z M39.983,15.992c-0.722,0-1.309,0.518-1.309,1.154c0,0.572,0.316,1.183,0.735,1.418 c0.178,0.099,0.384,0.152,0.598,0.152c0.307,0,0.591-0.109,0.781-0.3c0.286-0.287,0.502-0.872,0.502-1.36 C41.29,16.461,40.716,15.992,39.983,15.992z M40.286,17.915c-0.056,0.056-0.163,0.092-0.278,0.092c-0.092,0-0.18-0.022-0.249-0.062 c-0.178-0.1-0.375-0.462-0.375-0.799c0-0.241,0.275-0.443,0.6-0.443c0.343,0,0.599,0.187,0.599,0.354 C40.582,17.38,40.425,17.775,40.286,17.915z M32.558,17.461c-0.552-0.229-1.361-0.098-1.791,0.285 c-0.249,0.222-0.386,0.524-0.376,0.83c0.01,0.296,0.149,0.564,0.393,0.757c0.189,0.147,0.436,0.227,0.71,0.227h0.001 c0.408,0,0.832-0.169,1.163-0.464c0.335-0.298,0.495-0.662,0.438-0.999C33.049,17.816,32.853,17.585,32.558,17.461z M32.186,18.567 c-0.196,0.174-0.462,0.282-0.691,0.282c0,0,0,0-0.001,0c-0.112,0-0.21-0.026-0.271-0.075c-0.077-0.062-0.118-0.137-0.122-0.22 c-0.002-0.098,0.047-0.196,0.139-0.278c0.153-0.137,0.422-0.225,0.685-0.225c0.135,0,0.261,0.022,0.362,0.065 c0.047,0.018,0.104,0.052,0.11,0.098C32.406,18.269,32.372,18.401,32.186,18.567z M25.707,16.894 c-0.229-0.113-0.562-0.139-0.802-0.139c-0.311,0-0.647,0.041-0.946,0.111c-0.415,0.1-0.723,0.341-0.846,0.663 c-0.108,0.282-0.062,0.588,0.127,0.86c0.306,0.438,0.854,0.885,1.31,0.885c0.46,0,0.998-0.448,1.294-0.891 c0.229-0.344,0.313-0.717,0.231-1.026C26.02,17.15,25.889,16.986,25.707,16.894z M25.253,17.991 c-0.238,0.357-0.59,0.573-0.703,0.573c-0.114,0-0.477-0.219-0.729-0.58c-0.053-0.075-0.069-0.144-0.047-0.202 c0.029-0.075,0.136-0.174,0.349-0.224c0.245-0.061,0.524-0.092,0.781-0.092c0.283,0,0.438,0.04,0.479,0.058 C25.404,17.554,25.422,17.737,25.253,17.991z M20.313,14.636c-0.481-0.156-1.231-0.009-1.688,0.313 c-0.504,0.357-0.713,1.232-0.477,1.991c0.21,0.672,0.819,1.142,1.484,1.142c0.104,0,0.209-0.012,0.311-0.036 c0.73-0.173,1.304-0.928,1.304-1.721C21.247,15.533,20.845,14.807,20.313,14.636z M19.78,17.355 c-0.378,0.089-0.821-0.199-0.953-0.625c-0.154-0.493-0.016-1.042,0.209-1.202c0.21-0.147,0.541-0.248,0.824-0.248 c0.092,0,0.173,0.011,0.236,0.031c0.18,0.058,0.441,0.481,0.441,1.014C20.538,16.787,20.191,17.259,19.78,17.355z M49.605,25.013 c-0.436-0.49-1.073-0.771-1.752-0.771H11.314c-0.676,0-1.314,0.278-1.75,0.768c-0.438,0.487-0.646,1.151-0.572,1.823l3.238,29.639 c0.144,1.322,1.301,2.359,2.632,2.359h29.09c1.324,0,2.486-1.03,2.645-2.347l3.563-29.643 C50.241,26.169,50.039,25.501,49.605,25.013z M28.16,56.701l-2.52-30.332h8.749l-2.956,30.332H28.16z M19.052,56.701l-6.446-30.332 h8.232l1.42,30.332H19.052z M21.839,26.369h2.798l2.52,30.332h-3.898L21.839,26.369z M35.394,26.369h2.305l-1.42,30.332h-3.84 L35.394,26.369z M37.28,56.701l1.42-30.332h8.232l-6.446,30.332H37.28z M14.346,56.239L13.053,44.4l-0.745-6.813l-1.2-10.986 c-0.006-0.051-0.003-0.122,0.04-0.172c0.044-0.049,0.114-0.06,0.166-0.06h0.269l6.445,30.332h-3.167 C14.623,56.701,14.373,56.477,14.346,56.239z M46.9,36.132l-1.176,9.785l-1.24,10.312c-0.03,0.242-0.288,0.472-0.532,0.472H41.51 l6.438-30.299c0.023,0.008,0.049,0.004,0.065,0.022c0.04,0.045,0.041,0.113,0.035,0.162C48.048,26.586,46.9,36.132,46.9,36.132z"/> </g> </g>
</svg>